<svg xmlns="http://www.w3.org/2000/svg" viewBox="0 0 24 24" fill="none" stroke="currentColor" stroke-width="1.8" stroke-linecap="round" stroke-linejoin="round">
  <path d="M12 15a3 3 0 1 0 0-6 3 3 0 0 0 0 6Z"/>
  <path d="M19.4 13.5a1.7 1.7 0 0 0 .34 1.87l.06.06a2 2 0 1 1-2.83 2.83l-.06-.06a1.7 1.7 0 0 0-1.87-.34 1.7 1.7 0 0 0-1.04 1.56V20a2 2 0 1 1-4 0v-.09a1.7 1.7 0 0 0-1.04-1.56 1.7 1.7 0 0 0-1.87.34l-.06.06a2 2 0 1 1-2.83-2.83l.06-.06a1.7 1.7 0 0 0 .34-1.87 1.7 1.7 0 0 0-1.56-1.04H4a2 2 0 1 1 0-4h.09a1.7 1.7 0 0 0 1.56-1.04 1.7 1.7 0 0 0-.34-1.87l-.06-.06a2 2 0 1 1 2.83-2.83l.06.06a1.7 1.7 0 0 0 1.87.34H10a1.7 1.7 0 0 0 1.04-1.56V4a2 2 0 1 1 4 0v.09a1.7 1.7 0 0 0 1.04 1.56 1.7 1.7 0 0 0 1.87-.34l.06-.06a2 2 0 1 1 2.83 2.83l-.06.06a1.7 1.7 0 0 0-.34 1.87V10c.14.62.61 1.12 1.24 1.28.11.03.22.06.32.08.63.14 1.14.61 1.28 1.24"/>
</svg>
